# This file uses centimeters as units for non-parametric coordinates.

mtllib Prop_Asteroid.mtl
g default
v -1.392460 -1.382832 1.293299
v -0.654948 -1.558016 1.964844
v 0.654948 -1.705815 1.817584
v 1.139733 -1.964844 1.251138
v -1.964844 -0.654948 1.964844
v -0.654948 -0.654948 2.276184
v 0.654948 -0.654948 1.964844
v 1.759742 -0.654948 1.678373
v -1.870998 0.654948 1.824576
v -0.654948 0.654948 1.964844
v 0.654948 0.654948 2.388554
v 1.964844 0.654948 1.964844
v -1.460999 1.554724 1.534454
v -0.654948 1.877659 1.793336
v 0.654948 1.833799 1.964844
v 1.631034 1.605256 1.474489
v -1.964844 1.758329 0.654948
v -0.449963 2.146246 0.338832
v 0.654948 2.171588 0.654948
v 1.841845 1.485242 0.654948
v -1.964844 1.162572 -0.654948
v -0.654948 1.749421 -0.654948
v 0.654948 2.332887 -0.654948
v 1.703878 1.594265 -0.654948
v -1.166658 1.339087 -1.401262
v -0.654948 1.667279 -1.964844
v 0.654948 1.667279 -1.964844
v 1.465027 1.404546 -1.437968
v -1.744772 0.654948 -1.608084
v -0.654948 0.654948 -2.207262
v 0.654948 1.114055 -2.428365
v 1.964844 0.654948 -1.964844
v -1.450433 -0.654948 -1.760813
v -0.654948 -0.654948 -1.964844
v 0.654948 -0.654948 -1.964844
v 1.818543 -0.654948 -1.792564
v -1.332600 -1.581006 -1.141002
v -0.654948 -1.895009 -1.590969
v 0.654948 -1.964844 -1.964844
v 1.467745 -1.964844 -1.604355
v -1.586153 -1.964844 -0.654948
v -0.654948 -2.469805 -0.310425
v 0.654948 -2.490637 -0.654948
v 1.964844 -1.964844 -0.654948
v -1.046700 -1.964844 0.654948
v -0.654948 -2.368560 0.654948
v 0.328247 -2.294243 0.429311
v 1.594691 -1.745510 0.654948
v 2.192218 -0.654948 -0.654948
v 1.712544 -0.654948 0.654948
v 1.964844 0.654948 -0.654948
v 2.415289 0.654948 0.654948
v -1.964844 -0.654948 -0.654948
v -1.964844 -0.654948 0.654948
v -2.367593 0.654948 -0.654948
v -2.272333 0.654948 0.654948
vt 0.375000 0.000000
vt 0.458333 0.000000
vt 0.541667 0.000000
vt 0.625000 0.000000
vt 0.375000 0.083333
vt 0.458333 0.083333
vt 0.541667 0.083333
vt 0.625000 0.083333
vt 0.375000 0.166667
vt 0.458333 0.166667
vt 0.541667 0.166667
vt 0.625000 0.166667
vt 0.375000 0.250000
vt 0.458333 0.250000
vt 0.541667 0.250000
vt 0.625000 0.250000
vt 0.375000 0.333333
vt 0.458333 0.333333
vt 0.541667 0.333333
vt 0.625000 0.333333
vt 0.375000 0.416667
vt 0.458333 0.416667
vt 0.541667 0.416667
vt 0.625000 0.416667
vt 0.375000 0.500000
vt 0.458333 0.500000
vt 0.541667 0.500000
vt 0.625000 0.500000
vt 0.375000 0.583333
vt 0.458333 0.583333
vt 0.541667 0.583333
vt 0.625000 0.583333
vt 0.375000 0.666667
vt 0.458333 0.666667
vt 0.541667 0.666667
vt 0.625000 0.666667
vt 0.375000 0.750000
vt 0.458333 0.750000
vt 0.541667 0.750000
vt 0.625000 0.750000
vt 0.375000 0.833333
vt 0.458333 0.833333
vt 0.541667 0.833333
vt 0.625000 0.833333
vt 0.375000 0.916667
vt 0.458333 0.916667
vt 0.541667 0.916667
vt 0.625000 0.916667
vt 0.375000 1.000000
vt 0.458333 1.000000
vt 0.541667 1.000000
vt 0.625000 1.000000
vt 0.875000 0.000000
vt 0.791667 0.000000
vt 0.708333 0.000000
vt 0.875000 0.083333
vt 0.791667 0.083333
vt 0.708333 0.083333
vt 0.875000 0.166667
vt 0.791667 0.166667
vt 0.708333 0.166667
vt 0.875000 0.250000
vt 0.791667 0.250000
vt 0.708333 0.250000
vt 0.125000 0.000000
vt 0.208333 0.000000
vt 0.291667 0.000000
vt 0.125000 0.083333
vt 0.208333 0.083333
vt 0.291667 0.083333
vt 0.125000 0.166667
vt 0.208333 0.166667
vt 0.291667 0.166667
vt 0.125000 0.250000
vt 0.208333 0.250000
vt 0.291667 0.250000
vn -0.394274 -0.571892 0.719366
vn -0.094891 -0.404540 0.909584
vn -0.109410 -0.128576 0.985646
vn -0.270456 -0.089893 0.958526
vn 0.296107 -0.277523 0.913948
vn 0.187247 -0.210094 0.959583
vn 0.408182 -0.315654 0.856592
vn 0.317749 -0.286978 0.903703
vn -0.160007 0.147654 0.976010
vn -0.190392 0.197766 0.961582
vn 0.094892 0.072770 0.992824
vn 0.337977 0.036365 0.940451
vn -0.216577 0.239858 0.946342
vn -0.225625 0.248463 0.941998
vn 0.052255 0.331704 0.941935
vn 0.373282 0.414777 0.829832
vn -0.280293 0.933246 0.224695
vn -0.144658 0.964922 0.219089
vn -0.230283 0.972705 -0.028532
vn -0.329464 0.936671 -0.118749
vn 0.134774 0.973078 0.186963
vn 0.188902 0.976623 0.102587
vn 0.411518 0.901653 0.132950
vn 0.489188 0.867740 0.087880
vn -0.306152 0.919495 -0.246578
vn -0.372439 0.876608 -0.304709
vn 0.148077 0.975993 -0.159720
vn 0.542589 0.833162 -0.106949
vn -0.271636 0.931133 -0.243322
vn -0.479866 0.865011 -0.146574
vn 0.042324 0.944456 -0.325901
vn 0.519731 0.768431 -0.373354
vn -0.592145 0.388711 -0.705881
vn -0.335885 0.411254 -0.847379
vn -0.236856 0.007337 -0.971517
vn -0.479907 0.094398 -0.872226
vn 0.181600 0.561670 -0.807186
vn 0.119705 0.105106 -0.987230
vn 0.493373 0.638395 -0.590792
vn 0.297215 -0.017616 -0.954648
vn -0.215673 -0.197497 -0.956284
vn -0.416619 -0.202937 -0.886140
vn 0.062341 -0.179916 -0.981704
vn 0.225704 -0.171231 -0.959030
vn -0.249593 -0.233017 -0.939897
vn -0.441792 -0.393806 -0.806062
vn 0.038159 -0.128250 -0.991008
vn 0.258874 -0.103655 -0.960333
vn -0.423080 -0.769556 -0.478318
vn -0.212144 -0.884904 -0.414656
vn -0.240644 -0.962431 -0.125764
vn -0.505835 -0.819396 -0.269670
vn 0.017079 -0.935514 -0.352877
vn 0.136553 -0.986375 -0.091750
vn 0.274901 -0.921335 -0.274901
vn 0.335491 -0.939812 0.064806
vn -0.186455 -0.920208 0.344169
vn -0.595588 -0.745559 0.299027
vn 0.162163 -0.942654 0.291729
vn 0.314920 -0.917504 0.242922
vn -0.134062 -0.877742 0.459996
vn -0.594167 -0.700522 0.395266
vn 0.080399 -0.913354 0.399149
vn 0.196360 -0.961640 0.191548
vn 0.980532 -0.192950 -0.036424
vn 0.899145 -0.225387 -0.375153
vn 0.961434 -0.094398 -0.258327
vn 0.990079 -0.133886 -0.042632
vn 0.940306 -0.213648 0.264912
vn 0.955829 -0.237514 0.173142
vn 0.928327 -0.319255 0.190485
vn 0.927627 -0.332692 0.169775
vn 0.976912 0.151135 -0.151003
vn 0.984184 0.136299 -0.113154
vn 0.997462 0.040516 0.058544
vn 0.978302 -0.025764 0.205575
vn 0.885395 0.442878 -0.141191
vn 0.887922 0.429366 -0.165041
vn 0.885016 0.465121 0.020222
vn 0.839081 0.491654 0.232851
vn -0.823319 -0.313910 -0.472870
vn -0.905810 -0.423412 0.015173
vn -0.936529 -0.322570 -0.137341
vn -0.847313 -0.239286 -0.474133
vn -0.865983 -0.478030 0.146833
vn -0.936890 -0.330772 0.113251
vn -0.800832 -0.597779 0.036452
vn -0.962505 -0.239985 0.126456
vn -0.975672 0.020717 -0.218252
vn -0.854330 0.073350 -0.514529
vn -0.989689 0.055457 0.132065
vn -0.959436 0.099003 0.263971
vn -0.821162 0.512483 -0.251105
vn -0.639120 0.607804 -0.471274
vn -0.895819 0.388696 0.215461
vn -0.839773 0.359692 0.406699
s 1
g pCube1
usemtl initialShadingGroup
f 1/1/1 2/2/2 6/6/3 5/5/4
f 2/2/2 3/3/5 7/7/6 6/6/3
f 3/3/5 4/4/7 8/8/8 7/7/6
f 5/5/4 6/6/3 10/10/9 9/9/10
f 6/6/3 7/7/6 11/11/11 10/10/9
f 7/7/6 8/8/8 12/12/12 11/11/11
f 9/9/10 10/10/9 14/14/13 13/13/14
f 10/10/9 11/11/11 15/15/15 14/14/13
f 11/11/11 12/12/12 16/16/16 15/15/15
s 2
f 13/13/17 14/14/18 18/18/19 17/17/20
f 14/14/18 15/15/21 19/19/22 18/18/19
f 15/15/21 16/16/23 20/20/24 19/19/22
f 17/17/20 18/18/19 22/22/25 21/21/26
f 18/18/19 19/19/22 23/23/27 22/22/25
f 19/19/22 20/20/24 24/24/28 23/23/27
f 21/21/26 22/22/25 26/26/29 25/25/30
f 22/22/25 23/23/27 27/27/31 26/26/29
f 23/23/27 24/24/28 28/28/32 27/27/31
s 3
f 25/25/33 26/26/34 30/30/35 29/29/36
f 26/26/34 27/27/37 31/31/38 30/30/35
f 27/27/37 28/28/39 32/32/40 31/31/38
f 29/29/36 30/30/35 34/34/41 33/33/42
f 30/30/35 31/31/38 35/35/43 34/34/41
f 31/31/38 32/32/40 36/36/44 35/35/43
f 33/33/42 34/34/41 38/38/45 37/37/46
f 34/34/41 35/35/43 39/39/47 38/38/45
f 35/35/43 36/36/44 40/40/48 39/39/47
s 4
f 37/37/49 38/38/50 42/42/51 41/41/52
f 38/38/50 39/39/53 43/43/54 42/42/51
f 39/39/53 40/40/55 44/44/56 43/43/54
f 41/41/52 42/42/51 46/46/57 45/45/58
f 42/42/51 43/43/54 47/47/59 46/46/57
f 43/43/54 44/44/56 48/48/60 47/47/59
f 45/45/58 46/46/57 2/50/61 1/49/62
f 46/46/57 47/47/59 3/51/63 2/50/61
f 47/47/59 48/48/60 4/52/64 3/51/63
s 5
f 44/54/65 40/53/66 36/56/67 49/57/68
f 48/55/69 44/54/65 49/57/68 50/58/70
f 4/4/71 48/55/69 50/58/70 8/8/72
f 49/57/68 36/56/67 32/59/73 51/60/74
f 50/58/70 49/57/68 51/60/74 52/61/75
f 8/8/72 50/58/70 52/61/75 12/12/76
f 51/60/74 32/59/73 28/62/77 24/63/78
f 52/61/75 51/60/74 24/63/78 20/64/79
f 12/12/76 52/61/75 20/64/79 16/16/80
s 6
f 37/65/81 41/66/82 53/69/83 33/68/84
f 41/66/82 45/67/85 54/70/86 53/69/83
f 45/67/85 1/1/87 5/5/88 54/70/86
f 33/68/84 53/69/83 55/72/89 29/71/90
f 53/69/83 54/70/86 56/73/91 55/72/89
f 54/70/86 5/5/88 9/9/92 56/73/91
f 29/71/90 55/72/89 21/75/93 25/74/94
f 55/72/89 56/73/91 17/76/95 21/75/93
f 56/73/91 9/9/92 13/13/96 17/76/95
